<?xml version="1.0" encoding="UTF-8" standalone="no"?>

<svg
        version="1.1"
        id="svg1"
        width="512"
        height="512"
        viewBox="0 0 736 354"
        xmlns="http://www.w3.org/2000/svg">
    <defs
            id="defs1">
        <clipPath
                clipPathUnits="userSpaceOnUse"
                id="clipPath22">
            <path
                    d="M 0,864 H 1728 V 0 H 0 Z"
                    transform="translate(-1184.9532,-344.81001)"
                    id="path22"/>
        </clipPath>
        <clipPath
                clipPathUnits="userSpaceOnUse"
                id="clipPath24">
            <path
                    d="M 0,864 H 1728 V 0 H 0 Z"
                    transform="translate(-1258.9507,-394.05191)"
                    id="path24"/>
        </clipPath>
        <clipPath
                clipPathUnits="userSpaceOnUse"
                id="clipPath26">
            <path
                    d="M 0,864 H 1728 V 0 H 0 Z"
                    transform="translate(-1374.0687,-502.57042)"
                    id="path26"/>
        </clipPath>
        <clipPath
                clipPathUnits="userSpaceOnUse"
                id="clipPath28">
            <path
                    d="M 0,864 H 1728 V 0 H 0 Z"
                    transform="translate(-1204.7065,-383.89801)"
                    id="path28"/>
        </clipPath>
        <clipPath
                clipPathUnits="userSpaceOnUse"
                id="clipPath30">
            <path
                    d="M 0,864 H 1728 V 0 H 0 Z"
                    transform="translate(-1232.9652,-429.87661)"
                    id="path30"/>
        </clipPath>
        <clipPath
                clipPathUnits="userSpaceOnUse"
                id="clipPath32">
            <path
                    d="M 0,864 H 1728 V 0 H 0 Z"
                    transform="translate(-1264.7323,-445.93901)"
                    id="path32"/>
        </clipPath>
        <clipPath
                clipPathUnits="userSpaceOnUse"
                id="clipPath34">
            <path
                    d="M 0,864 H 1728 V 0 H 0 Z"
                    transform="translate(-1223.1966,-431.11601)"
                    id="path34"/>
        </clipPath>
        <clipPath
                clipPathUnits="userSpaceOnUse"
                id="clipPath36">
            <path
                    d="M 0,864 H 1728 V 0 H 0 Z"
                    transform="translate(-1407.2721,-578.48182)"
                    id="path36"/>
        </clipPath>
    </defs>
    <g
            id="layer-MC0"
            transform="translate(-51.640343,-46.012032)">
        <path
                id="path21"
                d="m 0,0 c -26.988,-6.503 -54.812,-10.555 -83.194,-11.917 -25.576,-1.228 -51.601,-0.264 -77.864,3.022 -1.184,0.148 -2.366,0.269 -3.551,0.427 h -0.002 c -0.966,0.129 -1.922,0.287 -2.887,0.422 -27.259,3.804 -53.605,9.983 -78.867,18.297 l -6.188,-18.115 c 27.603,-9.094 56.124,-15.653 85.421,-19.552 28.432,-3.784 56.814,-4.964 84.989,-3.608 29.254,1.408 58.283,5.579 86.907,12.505 z"
                style="fill:#28aae1;fill-opacity:1;fill-rule:nonzero;stroke:none"
                transform="matrix(1.3333333,0,0,-1.3333333,468.80366,357.57443)"
                clip-path="url(#clipPath22)"/>
        <path
                id="path23"
                d="m 0,0 c -4.936,-2.251 -9.904,-4.438 -14.931,-6.504 -12.832,-5.275 -25.95,-9.944 -39.313,-13.974 -6.682,-2.015 -13.425,-3.871 -20.225,-5.563 -1.005,-0.251 -2.019,-0.472 -3.026,-0.714 -25.786,-6.219 -52.36,-10.101 -79.457,-11.413 -25.565,-1.239 -51.588,-0.216 -77.843,3.278 h -0.001 l -2.521,-18.948 c 1.185,-0.158 2.367,-0.279 3.552,-0.427 26.255,-3.285 52.279,-4.237 77.862,-2.99 28.366,1.381 56.183,5.455 83.17,11.984 28.066,6.789 55.223,16.244 81.156,28.109 z"
                style="fill:#1b75bc;fill-opacity:1;fill-rule:nonzero;stroke:none"
                transform="matrix(1.3333333,0,0,-1.3333333,567.46696,291.91857)"
                clip-path="url(#clipPath24)"/>
        <path
                id="path25"
                d="m 0,0 c -17.361,-17.587 -36.262,-33.571 -56.437,-47.775 -21.071,-14.835 -43.535,-27.712 -67.104,-38.419 -23.605,-10.724 -48.312,-19.267 -73.836,-25.402 -24.583,-5.909 -49.914,-9.598 -75.743,-10.842 -24.393,-1.174 -49.221,-0.194 -74.271,3.14 h -0.002 c -3.514,0.467 -7.012,0.978 -10.494,1.532 -22.021,3.502 -43.363,8.738 -63.934,15.502 -24.672,8.113 -48.224,18.444 -70.438,30.761 l -9.729,-16.468 c 23.324,-12.973 48.066,-23.845 73.988,-32.383 14.782,-4.869 29.938,-8.998 45.455,-12.281 7.144,-1.511 14.362,-2.849 21.649,-4.008 3.643,-0.579 7.304,-1.114 10.982,-1.604 h 10e-4 c 26.255,-3.494 52.278,-4.516 77.843,-3.278 27.097,1.313 53.671,5.194 79.456,11.413 1.008,0.243 2.022,0.464 3.027,0.714 6.8,1.692 13.543,3.548 20.225,5.563 13.363,4.031 26.481,8.699 39.313,13.975 5.027,2.066 9.995,4.253 14.931,6.504 1.365,0.622 2.74,1.224 4.097,1.86 3.134,1.469 6.249,2.974 9.344,4.516 6.19,3.084 12.3,6.314 18.326,9.686 13.277,7.429 26.127,15.571 38.531,24.336 4.486,3.17 8.928,6.401 13.29,9.738 10.949,8.377 21.499,17.275 31.609,26.662 4.829,4.484 9.551,9.086 14.175,13.79 z"
                style="fill:#2a3890;fill-opacity:1;fill-rule:nonzero;stroke:none"
                transform="matrix(1.3333333,0,0,-1.3333333,720.95766,147.22723)"
                clip-path="url(#clipPath26)"/>
        <path
                id="path27"
                d="M 0,0 C -6.682,-2.015 -13.425,-3.871 -20.224,-5.563 -13.425,-3.871 -6.682,-2.015 0,0"
                style="fill:#00aeef;fill-opacity:1;fill-rule:nonzero;stroke:none"
                transform="matrix(1.3333333,0,0,-1.3333333,495.14136,305.4571)"
                clip-path="url(#clipPath28)"/>
        <path
                id="path29"
                d="M 0,0 C 1.365,0.622 2.74,1.224 4.097,1.86 2.74,1.224 1.365,0.622 0,0"
                style="fill:#00aeef;fill-opacity:1;fill-rule:nonzero;stroke:none"
                transform="matrix(1.3333333,0,0,-1.3333333,532.81956,244.1523)"
                clip-path="url(#clipPath30)"/>
        <path
                id="path31"
                d="M 0,0 C -6.026,-3.372 -12.137,-6.602 -18.326,-9.686 -12.137,-6.602 -6.026,-3.372 0,0"
                style="fill:#00aeef;fill-opacity:1;fill-rule:nonzero;stroke:none"
                transform="matrix(1.3333333,0,0,-1.3333333,575.17576,222.73577)"
                clip-path="url(#clipPath32)"/>
        <path
                id="path33"
                d="M 0,0 C 5.026,2.066 9.995,4.253 14.931,6.504 9.995,4.253 5.026,2.066 0,0"
                style="fill:#00aeef;fill-opacity:1;fill-rule:nonzero;stroke:none"
                transform="matrix(1.3333333,0,0,-1.3333333,519.79476,242.49977)"
                clip-path="url(#clipPath34)"/>
        <path
                id="path35"
                d="m 0,0 c -13.994,-20.882 -29.906,-40.283 -47.457,-57.981 -16.561,-16.698 -34.573,-31.88 -53.799,-45.36 -20.075,-14.075 -41.471,-26.287 -63.911,-36.44 -22.441,-10.154 -45.922,-18.24 -70.176,-24.049 l 4.763,-18.515 c 25.524,6.135 50.231,14.678 73.836,25.402 23.568,10.707 46.033,23.584 67.104,38.419 20.175,14.204 39.075,30.188 56.437,47.775 18.388,18.626 35.048,39.042 49.688,61.01 z"
                style="fill:#262261;fill-opacity:1;fill-rule:nonzero;stroke:none"
                transform="matrix(1.3333333,0,0,-1.3333333,765.22886,46.012031)"
                clip-path="url(#clipPath36)"/>
    </g>
</svg>
